<svg width="40" height="40" viewBox="0 0 40 40" fill="none" xmlns="http://www.w3.org/2000/svg">
<path d="M21.1655 29.8833C18.4991 29.8833 15.3428 28.6388 12.6639 26.4856C9.20688 23.7059 6.97641 19.8567 6.38344 15.6466C5.87706 12.0395 6.82411 8.37897 9.0163 5.47006C11.2085 2.56115 14.4663 0.642058 18.0733 0.134852C25.11 -0.85421 31.667 3.69891 33.3256 10.4591L33.3928 10.4411L33.5905 11.8239C34.1842 16.0427 33.103 20.3653 30.5436 23.9864C28.2889 27.177 25.11 29.4098 22.2467 29.8122C21.8884 29.861 21.5271 29.8848 21.1655 29.8833ZM19.9936 2.49735C19.468 2.49742 18.943 2.53423 18.4225 2.60751C16.9612 2.81272 15.5546 3.30376 14.2831 4.0526C13.0116 4.80144 11.9001 5.79341 11.0119 6.97187C10.1238 8.15032 9.47652 9.49218 9.10702 10.9208C8.73753 12.3494 8.65306 13.8369 8.85844 15.2981C9.36235 18.8763 11.2702 22.1575 14.2303 24.5372C16.7233 26.5411 19.7334 27.6395 21.8998 27.3349C24.0663 27.0302 26.6616 25.1473 28.503 22.5411C30.6319 19.5278 31.5678 15.9606 31.1538 12.463L31.1123 12.1684C30.3241 6.56376 25.5006 2.49735 19.9928 2.49735H19.9936Z" fill="#B18431"/>
<path d="M18.4429 25.2951C18.2854 25.295 18.1293 25.2654 17.9827 25.2076C14.7593 23.931 12.0218 21.0888 10.839 17.7904C10.7813 17.6354 10.7549 17.4704 10.7615 17.3052C10.768 17.1399 10.8073 16.9775 10.877 16.8276C10.9467 16.6776 11.0455 16.5429 11.1677 16.4314C11.2898 16.3199 11.4329 16.2337 11.5886 16.1778C11.7443 16.122 11.9095 16.0976 12.0747 16.1061C12.2399 16.1146 12.4018 16.1558 12.5509 16.2273C12.7001 16.2989 12.8335 16.3993 12.9436 16.5227C13.0537 16.6462 13.1381 16.7903 13.1921 16.9466C14.3249 20.1045 16.8851 22.0834 18.903 22.8841C19.1737 22.9911 19.3985 23.1891 19.5388 23.4441C19.679 23.6991 19.726 23.995 19.6714 24.2808C19.6169 24.5667 19.4644 24.8246 19.2401 25.01C19.0158 25.1954 18.7339 25.2968 18.4429 25.2966V25.2951Z" fill="#B18431"/>
<path d="M28.7273 39.9615C28.5698 39.9614 28.4137 39.9318 28.2671 39.874C25.0546 38.6013 22.6218 36.0521 21.4179 32.6951C21.3169 32.3857 21.3406 32.049 21.4839 31.7568C21.6272 31.4645 21.8788 31.2397 22.1853 31.1301C22.4918 31.0205 22.829 31.0348 23.1251 31.1699C23.4212 31.305 23.653 31.5504 23.7711 31.8537C24.7289 34.524 26.6523 36.5482 29.1875 37.5513C29.4581 37.6583 29.6829 37.8563 29.8232 38.1113C29.9635 38.3663 30.0104 38.6622 29.9559 38.948C29.9014 39.2339 29.7488 39.4918 29.5245 39.6772C29.3003 39.8626 29.0183 39.964 28.7273 39.9638V39.9615Z" fill="#B18431"/>
<path d="M20.1208 33.8708C19.9375 33.8708 19.7563 33.8304 19.5903 33.7525C19.4243 33.6747 19.2774 33.5612 19.1601 33.4202C19.0428 33.2792 18.958 33.1142 18.9117 32.9367C18.8653 32.7593 18.8586 32.5738 18.8919 32.3935L19.6099 28.5177C19.6576 28.26 19.7851 28.0239 19.9744 27.8426C20.1637 27.6613 20.4051 27.5441 20.6646 27.5075L23.1373 27.1599C23.3969 27.1234 23.6615 27.1694 23.8935 27.2915C24.1255 27.4137 24.3133 27.6057 24.4302 27.8404L26.1873 31.3685C26.2759 31.5459 26.3212 31.7418 26.3191 31.9402C26.3171 32.1385 26.2679 32.3335 26.1757 32.5091C26.0834 32.6846 25.9506 32.8357 25.7884 32.9498C25.6262 33.0639 25.4391 33.1378 25.2427 33.1654L20.2966 33.8607C20.2384 33.8684 20.1796 33.8718 20.1208 33.8708ZM21.9029 29.8575L21.6685 31.1411L23.1771 30.9294L22.5958 29.7575L21.9029 29.8575Z" fill="#B18431"/>
</svg>
