<svg width="40" height="40" viewBox="0 0 40 40" fill="none" xmlns="http://www.w3.org/2000/svg">
<path d="M26.9609 37.5007H21.4062C20.6328 37.5007 20 36.8679 20 36.0945V33.9304C20 33.071 19.5859 32.4929 19.2422 32.1492C18.6328 31.5554 17.7578 31.2273 16.8281 31.2507C15.1641 31.2898 13.75 32.7585 13.75 34.4617V36.0945C13.75 36.8679 13.1172 37.5007 12.3438 37.5007H6.84375C4.45312 37.4929 2.50781 35.5476 2.5 33.157V27.657C2.5 26.8835 3.13281 26.2507 3.90625 26.2507H6.07031C6.78906 26.2507 7.48438 25.946 8.03125 25.3913C8.64844 24.7663 9 23.9148 8.98438 23.0554C8.96094 21.3992 7.60156 20.0007 6.00781 20.0007H3.90625C3.13281 20.0007 2.5 19.3679 2.5 18.5945V13.0945C2.50781 10.7038 4.45312 8.75853 6.84375 8.75072H11.7891V7.6179C11.7891 7.58665 11.7891 7.5554 11.7891 7.53197C11.8359 4.71165 14.1719 2.45384 17 2.50072C19.7734 2.54759 22.0312 4.87572 22.0312 7.6804V8.75072H26.9688C29.3281 8.75072 31.2578 10.6726 31.2578 13.0398V17.9773H32.3281C35.1875 17.9773 37.5078 20.2429 37.5078 23.0242C37.5078 25.8835 35.2109 28.2117 32.3906 28.2117H31.25V33.2117C31.25 35.5788 29.3281 37.5007 26.9609 37.5007ZM5 28.7507V33.157C5 34.1726 5.83594 35.0007 6.85156 35.0007H11.25V34.4617C11.25 32.9929 11.8203 31.5867 12.8594 30.5007C13.9062 29.407 15.2969 28.7898 16.7656 28.7507C18.3594 28.7117 19.8984 29.2976 20.9844 30.3601C21.9609 31.3132 22.4922 32.5788 22.4922 33.9226V35.0007H26.9531C27.9375 35.0007 28.7422 34.196 28.7422 33.2117V27.1179C28.7422 26.3445 29.375 25.7117 30.1484 25.7117H32.375C33.8203 25.7117 34.9922 24.5085 34.9922 23.0242C34.9922 21.6179 33.7891 20.4773 32.3125 20.4773H30.1562C29.3828 20.4773 28.75 19.8445 28.75 19.071V13.0398C28.75 12.0554 27.9453 11.2507 26.9609 11.2507H20.9297C20.1562 11.2507 19.5234 10.6179 19.5234 9.84447V7.6804C19.5234 6.22728 18.3672 5.02415 16.9531 5.00072C16.25 4.9929 15.5938 5.25072 15.0859 5.73509C14.5859 6.21947 14.2969 6.87572 14.2891 7.57103V7.6179V9.84447C14.2891 10.6179 13.6562 11.2507 12.8828 11.2507H6.84375C5.82812 11.2507 5 12.0867 5 13.1023V17.5007H6.00781C7.45312 17.5007 8.82031 18.0867 9.86719 19.157C10.8906 20.2038 11.4688 21.5788 11.4844 23.0163C11.5078 24.5398 10.8984 26.0398 9.8125 27.1413C8.78906 28.1804 7.46094 28.7507 6.07031 28.7507H5Z" fill="#B18431"/>
</svg>
