<svg width="40" height="40" viewBox="0 0 40 40" fill="none" xmlns="http://www.w3.org/2000/svg">
<path fill-rule="evenodd" clip-rule="evenodd" d="M3.75001 13.8005C3.79875 9.04731 7.57477 5 12.4281 5C15.4071 5 17.5983 6.47458 18.9967 7.86296C19.386 8.24953 19.7202 8.63513 20 8.99068C20.2797 8.63513 20.6139 8.24953 21.0032 7.86296C22.4016 6.47458 24.5928 5 27.5718 5C32.4251 5 36.2012 9.04731 36.2499 13.8005L36.2499 13.8008C36.3423 23.0712 28.8935 29.4847 21.4062 34.5671C20.9915 34.8492 20.5015 35.0001 20 35.0001C19.4984 35.0001 19.0084 34.8492 18.5937 34.5671C11.1057 29.4847 3.65674 23.0712 3.75001 13.8007L3.75001 13.8005ZM21.1164 11.8121C20.9041 12.2338 20.4723 12.5 20 12.5C19.5277 12.5 19.0958 12.2338 18.8835 11.8121C18.8832 11.8116 18.8827 11.8106 18.882 11.8092C18.8804 11.8062 18.8779 11.8013 18.8744 11.7947C18.8725 11.7911 18.8703 11.7871 18.8679 11.7825C18.8539 11.7562 18.8305 11.7133 18.7978 11.6562C18.7323 11.5418 18.6301 11.3715 18.4912 11.1638C18.212 10.7465 17.7924 10.1902 17.2353 9.63704C16.1156 8.52542 14.521 7.5 12.4281 7.5C9.03771 7.5 6.28565 10.3494 6.24989 13.8259M21.1164 11.8121C21.1167 11.8116 21.1172 11.8106 21.1179 11.8092C21.1203 11.8046 21.125 11.7956 21.132 11.7825C21.146 11.7562 21.1694 11.7133 21.2021 11.6562C21.2676 11.5418 21.3698 11.3715 21.5087 11.1638C21.7879 10.7465 22.2075 10.1902 22.7646 9.63704C23.8843 8.52542 25.4789 7.5 27.5718 7.5C30.9622 7.5 33.7142 10.3494 33.75 13.8257C33.8279 21.6377 27.554 27.3725 20.001 32.4994L20 32.5001L19.9988 32.4993C12.4451 27.3725 6.17142 21.6378 6.24988 13.8261" fill="#B18431"/>
<path fill-rule="evenodd" clip-rule="evenodd" d="M16.3575 11.2547C16.8681 11.2987 17.3 11.65 17.4473 12.1408L20.2916 21.6218L22.632 16.941C22.8437 16.5175 23.2765 16.25 23.75 16.25C24.2235 16.25 24.6563 16.5175 24.868 16.941L27.0225 21.25H36.25C36.9404 21.25 37.5 21.8097 37.5 22.5C37.5 23.1904 36.9404 23.75 36.25 23.75H26.25C25.7765 23.75 25.3437 23.4825 25.132 23.059L23.75 20.2951L21.118 25.559C20.8888 26.0174 20.4031 26.2895 19.8925 26.2454C19.3819 26.2013 18.95 25.8501 18.8027 25.3592L15.9584 15.8782L13.618 20.559C13.4063 20.9825 12.9735 21.25 12.5 21.25H3.75C3.05964 21.25 2.5 20.6904 2.5 20C2.5 19.3097 3.05964 18.75 3.75 18.75H11.7275L15.132 11.941C15.3612 11.4826 15.8469 11.2106 16.3575 11.2547Z" fill="#B18431"/>
</svg>
