<svg width="40" height="40" viewBox="0 0 40 40" fill="none" xmlns="http://www.w3.org/2000/svg">
<path fill-rule="evenodd" clip-rule="evenodd" d="M19.992 3.75006C19.6262 3.7477 19.2636 3.818 18.9252 3.95689C18.5869 4.09577 18.2794 4.30048 18.0208 4.55912C17.7621 4.81776 17.5574 5.12519 17.4186 5.46357C17.2797 5.80195 17.2094 6.16454 17.2117 6.53031L17.2118 6.53434V6.53837C17.2118 7.71181 17.6388 10.0996 18.028 12.0099C18.1658 12.6864 17.7292 13.3465 17.0527 13.4843C16.3763 13.6221 15.7162 13.1855 15.5783 12.509C15.2038 10.671 14.7126 8.01966 14.7118 6.54232C14.7078 5.84694 14.8417 5.15765 15.1058 4.51431C15.3704 3.8697 15.7603 3.28406 16.253 2.79135C16.7457 2.29865 17.3314 1.90869 17.976 1.64412C18.6193 1.38006 19.3086 1.24614 20.0041 1.25008C22.9316 1.2523 25.2883 3.67047 25.2883 6.53837C25.2883 7.97839 24.7991 10.6467 24.422 12.5077C24.2849 13.1843 23.6253 13.6217 22.9487 13.4846C22.2721 13.3475 21.8347 12.6878 21.9718 12.0112C22.3635 10.0784 22.7883 7.67646 22.7883 6.53837C22.7883 5.03258 21.5315 3.75008 20 3.75008V2.50008L19.992 3.75006Z" fill="#B18431"/>
<path fill-rule="evenodd" clip-rule="evenodd" d="M17.0531 26.516C17.7295 26.654 18.166 27.3143 18.0279 27.9907C17.6372 29.9053 17.2118 32.2799 17.2118 33.4618V33.4658L17.2117 33.4699C17.2094 33.8356 17.2797 34.1982 17.4186 34.5366C17.5574 34.875 17.7621 35.1824 18.0208 35.4411C18.2794 35.6997 18.5869 35.9044 18.9252 36.0433C19.2636 36.1822 19.6262 36.2525 19.992 36.2501L20 37.5001V36.2501C21.5315 36.2501 22.7883 34.9676 22.7883 33.4618C22.7883 32.3206 22.3635 29.9236 21.9718 27.9888C21.8348 27.3122 22.2722 26.6526 22.9489 26.5156C23.6255 26.3786 24.2851 26.816 24.4221 27.4927C24.7991 29.3547 25.2883 32.0186 25.2883 33.4618C25.2883 36.3297 22.9316 38.7479 20.004 38.7501C19.3086 38.754 18.6193 38.6201 17.976 38.3561C17.3314 38.0915 16.7457 37.7015 16.253 37.2088C15.7603 36.7161 15.3704 36.1305 15.1058 35.4859C14.8417 34.8425 14.7078 34.1532 14.7118 33.4579C14.7126 31.9719 15.2023 29.3339 15.5784 27.4908C15.7164 26.8144 16.3767 26.3779 17.0531 26.516Z" fill="#B18431"/>
<path fill-rule="evenodd" clip-rule="evenodd" d="M34.5366 17.4186C34.1982 17.2797 33.8356 17.2094 33.4699 17.2117L33.4658 17.2118H33.4618C32.2799 17.2118 29.9053 17.6372 27.9907 18.0279C27.3143 18.166 26.654 17.7295 26.516 17.0531C26.3779 16.3767 26.8144 15.7164 27.4908 15.5784C29.3339 15.2023 31.9719 14.7126 33.4579 14.7118C34.1532 14.7078 34.8425 14.8417 35.4859 15.1058C36.1305 15.3704 36.7161 15.7603 37.2088 16.253C37.7015 16.7457 38.0915 17.3314 38.3561 17.976C38.6201 18.6193 38.754 19.3086 38.7501 20.004C38.7479 22.9316 36.3297 25.2883 33.4618 25.2883C32.0218 25.2883 29.3535 24.7991 27.4925 24.422C26.8159 24.2849 26.3785 23.6253 26.5156 22.9487C26.6527 22.2721 27.3124 21.8347 27.989 21.9718C29.9217 22.3635 32.3237 22.7883 33.4618 22.7883C34.9676 22.7883 36.2501 21.5315 36.2501 20H37.5001L36.2501 19.992C36.2525 19.6262 36.1822 19.2636 36.0433 18.9252C35.9044 18.5869 35.6997 18.2794 35.4411 18.0208C35.1824 17.7621 34.875 17.5574 34.5366 17.4186Z" fill="#B18431"/>
<path fill-rule="evenodd" clip-rule="evenodd" d="M6.54232 14.7118C8.0211 14.7126 10.6706 15.203 12.509 15.5775C13.1855 15.7154 13.6221 16.3755 13.4843 17.0519C13.3465 17.7284 12.6864 18.165 12.0099 18.0272C10.1 17.6381 7.71348 17.2118 6.53837 17.2118H6.53434L6.53031 17.2117C6.16454 17.2094 5.80195 17.2797 5.46357 17.4186C5.12519 17.5574 4.81776 17.7621 4.55912 18.0208C4.30048 18.2794 4.09577 18.5869 3.95689 18.9252C3.818 19.2636 3.7477 19.6262 3.75006 19.992L2.50008 20H3.75008C3.75008 21.5315 5.03258 22.7883 6.53837 22.7883C7.67646 22.7883 10.0784 22.3635 12.0112 21.9718C12.6878 21.8347 13.3475 22.2721 13.4846 22.9487C13.6217 23.6253 13.1843 24.2849 12.5077 24.422C10.6467 24.7991 7.97839 25.2883 6.53837 25.2883C3.67047 25.2883 1.2523 22.9316 1.25008 20.0041C1.24614 19.3086 1.38006 18.6193 1.64412 17.976C1.90869 17.3314 2.29865 16.7457 2.79135 16.253C3.28406 15.7603 3.8697 15.3704 4.51431 15.1058C5.15765 14.8417 5.84694 14.7078 6.54232 14.7118Z" fill="#B18431"/>
<path fill-rule="evenodd" clip-rule="evenodd" d="M29.5188 7.68188C29.153 7.68188 28.7909 7.75454 28.4535 7.89563C28.116 8.03672 27.81 8.24343 27.553 8.50377L27.55 8.50691L27.5468 8.51002C26.7092 9.34692 25.3127 11.3268 24.2394 12.9491C23.8585 13.5248 23.0829 13.6828 22.5072 13.3018C21.9314 12.9209 21.7735 12.1454 22.1544 11.5696C23.1973 9.99341 24.7285 7.79328 25.7767 6.74458C26.2656 6.25007 26.8476 5.85735 27.4891 5.58911C28.132 5.32031 28.8219 5.18188 29.5188 5.18188C30.2156 5.18188 30.9056 5.32031 31.5485 5.58911C32.1901 5.85738 32.7722 6.25019 33.261 6.74479C35.3296 8.81652 35.2861 12.1922 33.2585 14.2202C32.2427 15.2369 30.0212 16.7897 28.4319 17.8446C27.8568 18.2264 27.081 18.0696 26.6992 17.4944C26.3174 16.9192 26.4742 16.1434 27.0494 15.7617C28.6852 14.6759 30.6839 13.26 31.49 12.4532L31.4904 12.4528C32.5552 11.388 32.5735 9.59273 31.4904 8.50965L32.3743 7.62575L31.4845 8.50377C31.2276 8.24343 30.9216 8.03672 30.5841 7.89563C30.2467 7.75454 29.8845 7.68188 29.5188 7.68188Z" fill="#B18431"/>
<path fill-rule="evenodd" clip-rule="evenodd" d="M13.3018 22.5072C13.6828 23.0829 13.5248 23.8585 12.9491 24.2394C11.3268 25.3127 9.34692 26.7092 8.51002 27.5468L8.50691 27.55L8.50377 27.553C8.24343 27.81 8.03672 28.116 7.89563 28.4535C7.75454 28.7909 7.68188 29.153 7.68188 29.5188C7.68188 29.8845 7.75454 30.2467 7.89563 30.5841C8.03672 30.9216 8.24343 31.2276 8.50377 31.4845L8.50672 31.4874L8.50965 31.4904C9.59273 32.5735 11.388 32.5552 12.4528 31.4904L12.4532 31.49C13.26 30.6839 14.6759 28.6852 15.7617 27.0494C16.1434 26.4742 16.9192 26.3174 17.4944 26.6992C18.0696 27.081 18.2264 27.8568 17.8446 28.4319C16.7897 30.0212 15.2369 32.2427 14.2202 33.2585C12.1922 35.2861 8.81652 35.3296 6.74479 33.261C6.25019 32.7722 5.85738 32.1901 5.58911 31.5485C5.32031 30.9056 5.18188 30.2156 5.18188 29.5188C5.18188 28.8219 5.32031 28.132 5.58911 27.4891C5.85735 26.8476 6.25007 26.2656 6.74458 25.7767C7.79328 24.7285 9.99341 23.1973 11.5696 22.1544C12.1454 21.7735 12.9209 21.9314 13.3018 22.5072Z" fill="#B18431"/>
<path fill-rule="evenodd" clip-rule="evenodd" d="M26.6982 22.5072C27.0791 21.9314 27.8546 21.7735 28.4304 22.1544C30.0066 23.1973 32.2067 24.7285 33.2554 25.7767C33.75 26.2656 34.1427 26.8476 34.4109 27.4891C34.6797 28.132 34.8181 28.8219 34.8181 29.5188C34.8181 30.2156 34.6797 30.9056 34.4109 31.5485C34.1426 32.1901 33.7499 32.7722 33.2553 33.261C31.1834 35.3297 27.8074 35.2861 25.7794 33.2581C24.7616 32.2403 23.2114 30.0231 22.1554 28.4318C21.7737 27.8566 21.9305 27.0808 22.5057 26.6991C23.081 26.3174 23.8567 26.4743 24.2384 27.0495C25.3246 28.6863 26.7385 30.6817 27.5472 31.4904C28.6121 32.5552 30.4073 32.5735 31.4904 31.4904L32.3743 32.3743L31.4963 31.4845C31.7566 31.2276 31.9633 30.9216 32.1044 30.5841C32.2455 30.2467 32.3181 29.8845 32.3181 29.5188C32.3181 29.153 32.2455 28.7909 32.1044 28.4535C31.9633 28.116 31.7566 27.81 31.4963 27.553L31.4931 27.55L31.49 27.5468C30.6531 26.7092 28.6732 25.3127 27.0509 24.2394C26.4752 23.8585 26.3172 23.0829 26.6982 22.5072Z" fill="#B18431"/>
<path fill-rule="evenodd" clip-rule="evenodd" d="M8.4515 5.58911C9.09442 5.32031 9.78433 5.18188 10.4812 5.18188C11.178 5.18188 11.8679 5.32031 12.5109 5.58911C13.1525 5.85739 13.7346 6.25019 14.2235 6.7448C15.2651 7.78769 16.8041 9.997 17.8452 11.5692C18.2264 12.1447 18.0688 12.9204 17.4933 13.3015C16.9177 13.6827 16.1421 13.5251 15.7609 12.9496C14.689 11.331 13.2845 9.34141 12.4528 8.50965L12.4498 8.50672L12.4469 8.50377C12.19 8.24343 11.884 8.03672 11.5465 7.89563C11.2091 7.75454 10.8469 7.68188 10.4812 7.68188C10.1154 7.68188 9.75331 7.75454 9.41586 7.89563C9.07841 8.03672 8.77235 8.24343 8.51544 8.50377L7.62572 7.62577L8.5096 8.50965C7.42652 9.59273 7.44475 11.388 8.5096 12.4528C9.31211 13.2553 11.3174 14.6769 12.9509 15.7619C13.526 16.1439 13.6825 16.9197 13.3005 17.4947C12.9186 18.0698 12.1427 18.2263 11.5677 17.8443C9.98086 16.7903 7.75338 15.2321 6.74183 14.2206C4.71389 12.1926 4.67027 8.81667 6.73891 6.74481C7.22778 6.2502 7.80986 5.85739 8.4515 5.58911Z" fill="#B18431"/>
<path fill-rule="evenodd" clip-rule="evenodd" d="M20 16.25C17.9289 16.25 16.25 17.9289 16.25 20C16.25 22.0711 17.9289 23.75 20 23.75C22.0711 23.75 23.75 22.0711 23.75 20C23.75 17.9289 22.0711 16.25 20 16.25ZM13.75 20C13.75 16.5482 16.5482 13.75 20 13.75C23.4518 13.75 26.25 16.5482 26.25 20C26.25 23.4518 23.4518 26.25 20 26.25C16.5482 26.25 13.75 23.4518 13.75 20Z" fill="#B18431"/>
</svg>
