<svg width="34" height="36" viewBox="0 0 34 36" fill="none" xmlns="http://www.w3.org/2000/svg">
<path d="M17 35.4922C16.1328 35.4922 15.2656 35.2656 14.4844 34.8203L2.60938 27.9062C1.46094 27.2422 0.75 26 0.75 24.6719V11.3281C0.75 10 1.46875 8.75781 2.60938 8.09375L14.4844 1.17969C16.0312 0.273438 17.9609 0.273438 19.5078 1.17969L31.3828 8.09375C32.5312 8.76562 33.2422 10 33.2422 11.3281V24.6719C33.2422 26 32.5312 27.2422 31.3828 27.9062L19.5078 34.8203C18.7422 35.2734 17.8672 35.4922 17 35.4922ZM17 3C16.5625 3 16.1328 3.10938 15.7422 3.33594L3.86719 10.25C3.48438 10.4688 3.25 10.8828 3.25 11.3281V24.6641C3.25 25.1094 3.48438 25.5234 3.86719 25.7422L15.7422 32.6562C16.5156 33.1094 17.4766 33.1094 18.2578 32.6562L30.1328 25.7422C30.5156 25.5234 30.75 25.1094 30.75 24.6641V11.3281C30.75 10.8906 30.5078 10.4766 30.1328 10.25L18.2578 3.33594C17.8672 3.11719 17.4297 3 17 3Z" fill="#B18431"/>
<path d="M16.9999 19.8749C16.7811 19.8749 16.5624 19.8202 16.3671 19.703L1.7577 11.1093C1.16395 10.7577 0.960829 9.99208 1.31239 9.39833C1.66395 8.80458 2.42958 8.60145 3.02333 8.95302L16.9999 17.1718L30.9765 8.95302C31.5702 8.60145 32.3358 8.80458 32.6874 9.39833C33.039 9.99208 32.8358 10.7577 32.2421 11.1093L17.6327 19.703C17.4374 19.8202 17.2186 19.8749 16.9999 19.8749Z" fill="#B18431"/>
<path d="M17 35.5C16.3125 35.5 15.75 34.9375 15.75 34.25V18.625C15.75 17.9375 16.3125 17.375 17 17.375C17.6875 17.375 18.25 17.9375 18.25 18.625V34.25C18.25 34.9375 17.6875 35.5 17 35.5Z" fill="#B18431"/>
<path d="M17 11.125C18.0355 11.125 18.875 10.5654 18.875 9.875C18.875 9.18464 18.0355 8.625 17 8.625C15.9645 8.625 15.125 9.18464 15.125 9.875C15.125 10.5654 15.9645 11.125 17 11.125Z" fill="#B18431"/>
<path d="M13.25 23C13.9404 23 14.5 22.1605 14.5 21.125C14.5 20.0895 13.9404 19.25 13.25 19.25C12.5596 19.25 12 20.0895 12 21.125C12 22.1605 12.5596 23 13.25 23Z" fill="#B18431"/>
<path d="M5.75 25.5C6.44036 25.5 7 24.6605 7 23.625C7 22.5895 6.44036 21.75 5.75 21.75C5.05964 21.75 4.5 22.5895 4.5 23.625C4.5 24.6605 5.05964 25.5 5.75 25.5Z" fill="#B18431"/>
<path d="M20.75 23C21.4404 23 22 22.1605 22 21.125C22 20.0895 21.4404 19.25 20.75 19.25C20.0596 19.25 19.5 20.0895 19.5 21.125C19.5 22.1605 20.0596 23 20.75 23Z" fill="#B18431"/>
<path d="M28.25 18.625C28.9404 18.625 29.5 17.7855 29.5 16.75C29.5 15.7145 28.9404 14.875 28.25 14.875C27.5596 14.875 27 15.7145 27 16.75C27 17.7855 27.5596 18.625 28.25 18.625Z" fill="#B18431"/>
<path d="M20.75 29.875C21.4404 29.875 22 29.0355 22 28C22 26.9645 21.4404 26.125 20.75 26.125C20.0596 26.125 19.5 26.9645 19.5 28C19.5 29.0355 20.0596 29.875 20.75 29.875Z" fill="#B18431"/>
<path d="M28.25 25.5C28.9404 25.5 29.5 24.6605 29.5 23.625C29.5 22.5895 28.9404 21.75 28.25 21.75C27.5596 21.75 27 22.5895 27 23.625C27 24.6605 27.5596 25.5 28.25 25.5Z" fill="#B18431"/>
</svg>
