<svg width="40" height="40" viewBox="0 0 40 40" fill="none" xmlns="http://www.w3.org/2000/svg">
<path fill-rule="evenodd" clip-rule="evenodd" d="M18.125 15C13.9162 15 10.2122 17.9551 9.35839 23.1406L9.35814 23.1421C9.27184 23.6623 9.02359 24.142 8.64876 24.5129C8.27465 24.8831 7.79348 25.1261 7.27353 25.2074C6.04788 25.4032 4.83281 25.8999 3.94659 26.6956C3.09031 27.4643 2.5 28.5426 2.5 30.0625C2.5 31.8479 3.14546 33.0198 4.09401 33.775C5.0832 34.5626 6.53618 35 8.28125 35H26.5625C30.629 35 33.75 32.2145 33.75 28.375C33.75 26.4318 33.0643 24.9664 32.0036 23.9075C30.9237 22.8294 29.3923 22.1134 27.6427 21.8282L27.6422 21.8282C27.2157 21.7585 26.8147 21.5789 26.4788 21.3071C26.1428 21.0353 25.8835 20.6807 25.7263 20.2782L25.7259 20.2772C24.6549 17.5283 22.0316 15 18.125 15ZM6.89184 22.733C7.92758 16.4459 12.5889 12.5 18.125 12.5C23.2663 12.5 26.687 15.8653 28.0524 19.362C30.2062 19.7145 32.2499 20.6208 33.7699 22.1382C35.3107 23.6766 36.25 25.783 36.25 28.375C36.25 33.8167 31.7773 37.5 26.5625 37.5H8.28125C6.15913 37.5 4.09648 36.9726 2.53685 35.7308C0.936567 34.4567 0 32.5349 0 30.0625C0 27.7957 0.92024 26.0529 2.27646 24.8353C3.60221 23.6451 5.30069 22.9904 6.8821 22.7382L6.8873 22.7374C6.88843 22.7373 6.88949 22.7367 6.89031 22.7359C6.89082 22.7354 6.89123 22.7348 6.8915 22.7341C6.89165 22.7338 6.89177 22.7334 6.89184 22.733Z" fill="#B18431"/>
<path fill-rule="evenodd" clip-rule="evenodd" d="M24.1568 9.05087C25.269 8.72837 26.4408 8.66779 27.5803 8.87387C28.7198 9.07995 29.7961 9.5471 30.7249 10.2387C31.6537 10.9303 32.4097 11.8276 32.9337 12.8602C33.4577 13.8929 33.7355 15.0328 33.7453 16.1908C33.7551 17.3488 33.4966 18.4932 32.9901 19.5346C32.4836 20.5759 31.7428 21.4859 30.8259 22.1931C30.2792 22.6147 29.4943 22.5133 29.0727 21.9666C28.651 21.42 28.7524 20.635 29.2991 20.2134C29.9104 19.742 30.4042 19.1353 30.7419 18.4411C31.0796 17.7469 31.2519 16.9839 31.2454 16.2119C31.2388 15.4399 31.0537 14.68 30.7043 13.9915C30.355 13.3031 29.8509 12.7049 29.2318 12.2439C28.6126 11.7828 27.895 11.4714 27.1354 11.334C26.3757 11.1966 25.5945 11.237 24.8531 11.452C24.1116 11.667 23.43 12.0507 22.8617 12.5732C22.2933 13.0957 21.8537 13.7426 21.5772 14.4634C21.33 15.108 20.607 15.4301 19.9624 15.1828C19.3179 14.9356 18.9958 14.2126 19.243 13.5681C19.6578 12.4869 20.3172 11.5164 21.1697 10.7327C22.0222 9.94902 23.0446 9.37337 24.1568 9.05087Z" fill="#B18431"/>
<path fill-rule="evenodd" clip-rule="evenodd" d="M35 16.25C35 15.5596 35.5596 15 36.25 15H38.75C39.4404 15 40 15.5596 40 16.25C40 16.9404 39.4404 17.5 38.75 17.5H36.25C35.5596 17.5 35 16.9404 35 16.25Z" fill="#B18431"/>
<path fill-rule="evenodd" clip-rule="evenodd" d="M26.25 2.5C26.9404 2.5 27.5 3.05964 27.5 3.75V6.25C27.5 6.94036 26.9404 7.5 26.25 7.5C25.5596 7.5 25 6.94036 25 6.25V3.75C25 3.05964 25.5596 2.5 26.25 2.5Z" fill="#B18431"/>
<path fill-rule="evenodd" clip-rule="evenodd" d="M16.527 6.52701C17.0152 6.03885 17.8066 6.03885 18.2948 6.527L20.0627 8.29497C20.5509 8.78313 20.5509 9.57458 20.0627 10.0627C19.5746 10.5509 18.7831 10.5509 18.295 10.0627L16.527 8.29477C16.0388 7.80662 16.0388 7.01516 16.527 6.52701Z" fill="#B18431"/>
<path fill-rule="evenodd" clip-rule="evenodd" d="M35.9729 6.52701C36.4611 7.01516 36.4611 7.80662 35.9729 8.29477L34.2049 10.0627C33.7168 10.5509 32.9253 10.5509 32.4372 10.0627C31.949 9.57458 31.949 8.78313 32.4372 8.29497L34.2051 6.527C34.6933 6.03885 35.4847 6.03885 35.9729 6.52701Z" fill="#B18431"/>
</svg>
