<svg width="40" height="40" viewBox="0 0 40 40" fill="none" xmlns="http://www.w3.org/2000/svg">
<path fill-rule="evenodd" clip-rule="evenodd" d="M14.375 2.5C14.8278 2.5 15.2453 2.74492 15.4662 3.14022L27.3412 24.3902C27.5575 24.7773 27.5525 25.2501 27.3281 25.6326C27.1037 26.015 26.6935 26.25 26.25 26.25H2.5C2.05654 26.25 1.64628 26.015 1.42187 25.6326C1.19746 25.2501 1.19249 24.7773 1.40882 24.3902L13.2838 3.14022C13.5047 2.74492 13.9222 2.5 14.375 2.5ZM4.63047 23.75H24.1195L14.375 6.31241L4.63047 23.75Z" fill="#B18431"/>
<path fill-rule="evenodd" clip-rule="evenodd" d="M27.6465 15.0956C25.4713 14.7888 23.2556 15.2068 21.3417 16.285L20.1146 14.1069C22.507 12.7591 25.2766 12.2366 27.9956 12.6201C30.7146 13.0035 33.2317 14.2716 35.1581 16.2285C37.0844 18.1854 38.3128 20.7221 38.6534 23.4468C38.9941 26.1715 38.4281 28.9326 37.0428 31.3035C35.6576 33.6744 33.5302 35.5232 30.9893 36.5643C28.4484 37.6054 25.6354 37.7809 22.9848 37.0636C20.3342 36.3463 17.9935 34.7762 16.3244 32.5958C14.6553 30.4154 13.7506 27.7461 13.75 25.0001L16.25 24.9996C16.2504 27.1964 16.9742 29.3318 18.3095 31.0761C19.6448 32.8205 21.5174 34.0765 23.6378 34.6504C25.7583 35.2242 28.0087 35.0838 30.0414 34.251C32.0742 33.4181 33.7761 31.939 34.8843 30.0423C35.9925 28.1456 36.4453 25.9367 36.1727 23.757C35.9002 21.5772 34.9175 19.5478 33.3764 17.9823C31.8354 16.4168 29.8217 15.4023 27.6465 15.0956Z" fill="#B18431"/>
</svg>
