<svg width="40" height="40" viewBox="0 0 40 40" fill="none" xmlns="http://www.w3.org/2000/svg">
<path fill-rule="evenodd" clip-rule="evenodd" d="M26.25 11.25C26.25 10.5596 26.8096 10 27.5 10H36.25C36.9404 10 37.5 10.5596 37.5 11.25V20C37.5 20.6904 36.9404 21.25 36.25 21.25C35.5596 21.25 35 20.6904 35 20V12.5H27.5C26.8096 12.5 26.25 11.9404 26.25 11.25Z" fill="#B18431"/>
<path fill-rule="evenodd" clip-rule="evenodd" d="M35.8839 11.6161C36.372 12.1043 36.372 12.8957 35.8839 13.3839L25.152 24.1158C25.1519 24.1158 25.1519 24.1159 25.1519 24.1159C24.8036 24.4642 24.3902 24.7404 23.9353 24.9289C23.4802 25.1174 22.9925 25.2145 22.5 25.2145C22.0075 25.2145 21.5198 25.1174 21.0647 24.9289C20.6097 24.7404 20.1963 24.4641 19.848 24.1158L15.8841 20.1519L15.884 20.1518C15.7679 20.0356 15.6301 19.9435 15.4784 19.8807C15.3267 19.8179 15.1642 19.7855 15 19.7855C14.8358 19.7855 14.6733 19.8179 14.5216 19.8807C14.3699 19.9435 14.2321 20.0356 14.116 20.1518L14.1159 20.1519L4.63388 29.6339C4.14573 30.122 3.35427 30.122 2.86612 29.6339C2.37796 29.1457 2.37796 28.3543 2.86612 27.8661L12.348 18.3842C12.6963 18.0359 13.1097 17.7596 13.5647 17.5711C14.0198 17.3826 14.5075 17.2855 15 17.2855C15.4925 17.2855 15.9802 17.3826 16.4353 17.5711C16.8903 17.7596 17.3037 18.0359 17.652 18.3842L21.6159 22.3481L21.616 22.3482C21.7321 22.4644 21.8699 22.5565 22.0216 22.6193C22.1733 22.6821 22.3358 22.7145 22.5 22.7145C22.6642 22.7145 22.8267 22.6821 22.9784 22.6193C23.1301 22.5565 23.2679 22.4644 23.384 22.3482L23.3841 22.3481L34.1161 11.6161C34.6043 11.128 35.3957 11.128 35.8839 11.6161Z" fill="#B18431"/>
</svg>
