<svg width="96" height="97" viewBox="0 0 96 97" fill="none" xmlns="http://www.w3.org/2000/svg">
<circle cx="48" cy="48.9214" r="47" stroke="#EBDFC7" stroke-width="2"/>
<path fill-rule="evenodd" clip-rule="evenodd" d="M26.0625 49.2549C26.0625 37.1432 35.8883 27.3174 48 27.3174C60.1117 27.3174 69.9375 37.1432 69.9375 49.2549C69.9375 61.3666 60.1117 71.1924 48 71.1924C35.8883 71.1924 26.0625 61.3666 26.0625 49.2549ZM48 30.6924C37.7523 30.6924 29.4375 39.0072 29.4375 49.2549C29.4375 59.5026 37.7523 67.8174 48 67.8174C58.2477 67.8174 66.5625 59.5026 66.5625 49.2549C66.5625 39.0072 58.2477 30.6924 48 30.6924Z" fill="#EBDFC7"/>
<path fill-rule="evenodd" clip-rule="evenodd" d="M59.2104 39.5253C59.924 40.1247 60.0166 41.1892 59.4171 41.9028L45.2421 58.7778C44.928 59.1518 44.4672 59.3713 43.9788 59.3797C43.4905 59.388 43.0225 59.1843 42.6957 58.8213L36.6207 52.0713C35.9972 51.3786 36.0534 50.3116 36.7461 49.6881C37.4389 49.0647 38.5059 49.1208 39.1293 49.8135L43.9061 55.1211L56.8329 39.732C57.4323 39.0184 58.4968 38.9259 59.2104 39.5253Z" fill="#EBDFC7"/>
</svg>
