<svg width="96" height="97" viewBox="0 0 96 97" fill="none" xmlns="http://www.w3.org/2000/svg">
<circle cx="48" cy="48.5166" r="47.5" fill="#B18431" stroke="#B18431"/>
<path fill-rule="evenodd" clip-rule="evenodd" d="M65.2391 32.0907C63.0549 29.9055 60.4601 28.1738 57.6039 26.9955C54.7478 25.8171 51.6868 25.2153 48.5972 25.2247C35.6309 25.2247 25.0755 35.7273 25.0703 48.6388C25.0645 52.7501 26.1483 56.7895 28.2111 60.3458L24.873 72.4747L37.3447 69.2189C40.7969 71.0891 44.6614 72.0679 48.5877 72.0666H48.5972C61.5625 72.0666 72.1167 61.5629 72.123 48.6525C72.1309 45.5734 71.5263 42.5235 70.3445 39.6802C69.1627 36.8369 67.4272 34.2571 65.2391 32.0907V32.0907ZM48.5972 68.1146H48.5887C45.0886 68.1157 41.6522 67.179 38.6367 65.402L37.9227 64.9801L30.522 66.9123L32.4974 59.7309L32.0323 58.9927C30.0752 55.8942 29.0383 52.3036 29.0422 48.6388C29.0422 37.9094 37.8183 29.1798 48.6046 29.1798C53.7789 29.1706 58.7449 31.217 62.4105 34.8689C66.0761 38.5209 68.141 43.4793 68.1511 48.6535C68.1469 59.3839 59.375 68.1146 48.5972 68.1146ZM59.3223 53.5399C58.7348 53.2467 55.8418 51.8313 55.3061 51.6362C54.7703 51.4411 54.3748 51.343 53.9835 51.9294C53.5922 52.5158 52.4647 53.8278 52.122 54.2234C51.7792 54.6189 51.4364 54.6621 50.8489 54.3689C50.2615 54.0757 48.3662 53.4587 46.1208 51.4653C44.3732 49.9139 43.194 47.9986 42.8513 47.4132C42.5085 46.8279 42.8143 46.5104 43.1086 46.2193C43.3733 45.9567 43.6961 45.5359 43.9903 45.1942C44.2846 44.8525 44.3827 44.6078 44.5778 44.2175C44.7729 43.8273 44.6759 43.4856 44.5293 43.1934C44.3827 42.9013 43.2067 40.0209 42.7173 38.8492C42.2395 37.708 41.7554 37.863 41.3947 37.8451C41.052 37.8282 40.6564 37.824 40.2673 37.824C39.9698 37.8318 39.677 37.9008 39.4074 38.0267C39.1377 38.1526 38.8969 38.3328 38.7 38.556C38.1611 39.1424 36.6423 40.5599 36.6423 43.4371C36.6423 46.3142 38.7517 49.0986 39.0428 49.4889C39.3339 49.8791 43.1877 55.7885 49.0845 58.3229C50.1794 58.7918 51.2982 59.203 52.4362 59.5548C53.8443 59.9999 55.1257 59.9377 56.1382 59.7868C57.2678 59.6191 59.6187 58.3714 60.107 57.0046C60.5953 55.6377 60.5964 54.467 60.4498 54.2234C60.3032 53.9797 59.9108 53.8321 59.3223 53.5399Z" fill="white"/>
</svg>
