<svg width="96" height="97" viewBox="0 0 96 97" fill="none" xmlns="http://www.w3.org/2000/svg">
<circle cx="48" cy="48.7314" r="47.5" stroke="#EBDFC7"/>
<path fill-rule="evenodd" clip-rule="evenodd" d="M31.125 32.1899C29.261 32.1899 27.75 33.701 27.75 35.5649V65.9399C27.75 67.8039 29.261 69.3149 31.125 69.3149H64.875C66.739 69.3149 68.25 67.8039 68.25 65.9399V35.5649C68.25 33.701 66.739 32.1899 64.875 32.1899H31.125ZM24.375 35.5649C24.375 31.837 27.3971 28.8149 31.125 28.8149H64.875C68.6029 28.8149 71.625 31.837 71.625 35.5649V65.9399C71.625 69.6679 68.6029 72.6899 64.875 72.6899H31.125C27.3971 72.6899 24.375 69.6679 24.375 65.9399V35.5649Z" fill="#EBDFC7"/>
<path d="M52.2188 49.0649C53.6167 49.0649 54.75 47.9317 54.75 46.5337C54.75 45.1357 53.6167 44.0024 52.2188 44.0024C50.8208 44.0024 49.6875 45.1357 49.6875 46.5337C49.6875 47.9317 50.8208 49.0649 52.2188 49.0649Z" fill="#EBDFC7"/>
<path d="M60.6562 49.0649C62.0542 49.0649 63.1875 47.9317 63.1875 46.5337C63.1875 45.1357 62.0542 44.0024 60.6562 44.0024C59.2583 44.0024 58.125 45.1357 58.125 46.5337C58.125 47.9317 59.2583 49.0649 60.6562 49.0649Z" fill="#EBDFC7"/>
<path d="M52.2188 57.5024C53.6167 57.5024 54.75 56.3692 54.75 54.9712C54.75 53.5732 53.6167 52.4399 52.2188 52.4399C50.8208 52.4399 49.6875 53.5732 49.6875 54.9712C49.6875 56.3692 50.8208 57.5024 52.2188 57.5024Z" fill="#EBDFC7"/>
<path d="M60.6562 57.5024C62.0542 57.5024 63.1875 56.3692 63.1875 54.9712C63.1875 53.5732 62.0542 52.4399 60.6562 52.4399C59.2583 52.4399 58.125 53.5732 58.125 54.9712C58.125 56.3692 59.2583 57.5024 60.6562 57.5024Z" fill="#EBDFC7"/>
<path d="M35.3438 57.5024C36.7417 57.5024 37.875 56.3692 37.875 54.9712C37.875 53.5732 36.7417 52.4399 35.3438 52.4399C33.9458 52.4399 32.8125 53.5732 32.8125 54.9712C32.8125 56.3692 33.9458 57.5024 35.3438 57.5024Z" fill="#EBDFC7"/>
<path d="M43.7812 57.5024C45.1792 57.5024 46.3125 56.3692 46.3125 54.9712C46.3125 53.5732 45.1792 52.4399 43.7812 52.4399C42.3833 52.4399 41.25 53.5732 41.25 54.9712C41.25 56.3692 42.3833 57.5024 43.7812 57.5024Z" fill="#EBDFC7"/>
<path d="M35.3438 65.9399C36.7417 65.9399 37.875 64.8067 37.875 63.4087C37.875 62.0107 36.7417 60.8774 35.3438 60.8774C33.9458 60.8774 32.8125 62.0107 32.8125 63.4087C32.8125 64.8067 33.9458 65.9399 35.3438 65.9399Z" fill="#EBDFC7"/>
<path d="M43.7812 65.9399C45.1792 65.9399 46.3125 64.8067 46.3125 63.4087C46.3125 62.0107 45.1792 60.8774 43.7812 60.8774C42.3833 60.8774 41.25 62.0107 41.25 63.4087C41.25 64.8067 42.3833 65.9399 43.7812 65.9399Z" fill="#EBDFC7"/>
<path d="M52.2188 65.9399C53.6167 65.9399 54.75 64.8067 54.75 63.4087C54.75 62.0107 53.6167 60.8774 52.2188 60.8774C50.8208 60.8774 49.6875 62.0107 49.6875 63.4087C49.6875 64.8067 50.8208 65.9399 52.2188 65.9399Z" fill="#EBDFC7"/>
<path fill-rule="evenodd" clip-rule="evenodd" d="M34.5 25.4399C35.432 25.4399 36.1875 26.1955 36.1875 27.1274V30.5024C36.1875 31.4344 35.432 32.1899 34.5 32.1899C33.568 32.1899 32.8125 31.4344 32.8125 30.5024V27.1274C32.8125 26.1955 33.568 25.4399 34.5 25.4399Z" fill="#EBDFC7"/>
<path fill-rule="evenodd" clip-rule="evenodd" d="M61.5 25.4399C62.432 25.4399 63.1875 26.1955 63.1875 27.1274V30.5024C63.1875 31.4344 62.432 32.1899 61.5 32.1899C60.568 32.1899 59.8125 31.4344 59.8125 30.5024V27.1274C59.8125 26.1955 60.568 25.4399 61.5 25.4399Z" fill="#EBDFC7"/>
<path fill-rule="evenodd" clip-rule="evenodd" d="M26.0625 37.2524H69.9375V40.6274H26.0625V37.2524Z" fill="#EBDFC7"/>
</svg>
