<svg width="96" height="97" viewBox="0 0 96 97" fill="none" xmlns="http://www.w3.org/2000/svg">
<circle cx="48" cy="48.3267" r="47.5" stroke="#EBDFC7"/>
<path fill-rule="evenodd" clip-rule="evenodd" d="M44.0361 38.5354V50.4679C44.0361 51.5061 44.3059 52.526 44.8181 53.4277L46.5568 55.6506V41.0896C46.5568 40.7541 46.4907 40.4219 46.3623 40.1119C46.2339 39.802 46.0457 39.5203 45.8084 39.2831C45.5712 39.0459 45.2895 38.8578 44.9795 38.7294C44.6801 38.6055 44.3599 38.5397 44.0361 38.5354ZM49.9318 60.2213V41.0896C49.9318 40.3108 49.7784 39.5397 49.4803 38.8202C49.1823 38.1007 48.7454 37.447 48.1946 36.8963C47.6439 36.3457 46.99 35.909 46.2705 35.6111C45.551 35.3132 44.78 35.16 44.0013 35.1602C44.0012 35.1602 44.001 35.1602 44.0009 35.1602L42.3486 35.1602C41.4167 35.1602 40.6611 35.9157 40.6611 36.8477V50.4679C40.6611 52.1446 41.1112 53.7906 41.9643 55.2341C42.0015 55.2971 42.0428 55.3576 42.0878 55.4152L46.7157 61.3318L52.6265 73.2782C53.0398 74.1135 54.052 74.4556 54.8873 74.0423C55.7226 73.629 56.0648 72.6168 55.6515 71.7815L49.9318 60.2213Z" fill="#EBDFC7"/>
<path fill-rule="evenodd" clip-rule="evenodd" d="M36.1768 45.1237C36.2828 44.9267 36.4334 44.6542 36.6224 44.3302C37.031 43.6296 37.6092 42.7054 38.2954 41.7904C38.9889 40.8656 39.751 40.0065 40.5171 39.3935C41.3067 38.7618 41.92 38.5352 42.3488 38.5352C43.2808 38.5352 44.0363 37.7796 44.0363 36.8477C44.0363 35.9157 43.2808 35.1602 42.3488 35.1602C40.8127 35.1602 39.4611 35.9161 38.4086 36.7582C37.3326 37.6191 36.3755 38.7252 35.5953 39.7655C34.8078 40.8157 34.158 41.8566 33.707 42.6298C33.4805 43.0182 33.3017 43.3433 33.1782 43.5737C33.1165 43.689 33.0684 43.7809 33.0351 43.8454C33.0184 43.8777 33.0054 43.9032 32.9961 43.9214C32.9915 43.9305 32.9879 43.9378 32.9851 43.9432L32.9818 43.9498L32.9802 43.953C32.98 43.9533 32.9799 43.9537 34.4893 44.7082L32.9799 43.9537C32.8627 44.1879 32.8018 44.4463 32.8018 44.7082V52.5678C32.8018 53.4998 33.5573 54.2553 34.4893 54.2553C35.4212 54.2553 36.1768 53.4998 36.1768 52.5678V45.1237Z" fill="#EBDFC7"/>
<path fill-rule="evenodd" clip-rule="evenodd" d="M51.6523 45.0971C52.164 44.3182 53.2102 44.1015 53.9892 44.6132L60.9607 49.1927C61.7396 49.7043 61.9563 50.7506 61.4446 51.5296C60.9329 52.3085 59.8866 52.5252 59.1077 52.0135L52.1362 47.434C51.3573 46.9224 51.1406 45.8761 51.6523 45.0971Z" fill="#EBDFC7"/>
<path fill-rule="evenodd" clip-rule="evenodd" d="M45.5761 62.4539C46.3459 62.9792 46.5441 64.0291 46.0188 64.799L40.3794 73.0635C39.8541 73.8333 38.8042 74.0316 38.0344 73.5063C37.2645 72.9809 37.0663 71.931 37.5916 71.1612L43.231 62.8967C43.7563 62.1268 44.8062 61.9286 45.5761 62.4539Z" fill="#EBDFC7"/>
<path fill-rule="evenodd" clip-rule="evenodd" d="M48.2442 26.7461C47.0059 26.7461 46.002 27.75 46.002 28.9884C46.002 30.2267 47.0058 31.2306 48.2442 31.2306C49.4826 31.2306 50.4865 30.2267 50.4865 28.9884C50.4865 27.75 49.4826 26.7461 48.2442 26.7461ZM42.627 28.9884C42.627 25.886 45.1419 23.3711 48.2442 23.3711C51.3466 23.3711 53.8615 25.886 53.8615 28.9884C53.8615 32.0907 51.3466 34.6056 48.2442 34.6056C45.1419 34.6056 42.627 32.0907 42.627 28.9884Z" fill="#EBDFC7"/>
</svg>
