<svg width="40" height="40" viewBox="0 0 40 40" fill="none" xmlns="http://www.w3.org/2000/svg">
<path fill-rule="evenodd" clip-rule="evenodd" d="M7.5 14.4531C7.5 7.79792 13.158 2.5 20 2.5C26.842 2.5 32.5 7.79792 32.5 14.4531C32.5 18.205 30.4714 22.847 28.2492 26.8592C25.9938 30.9316 23.3962 34.6006 22.0032 36.4818C21.7734 36.796 21.4728 37.0517 21.1258 37.2284C20.7771 37.4059 20.3913 37.4984 20 37.4984C19.6087 37.4984 19.2229 37.4059 18.8742 37.2284C18.5271 37.0517 18.2265 36.7959 17.9967 36.4817C16.6037 34.5997 14.0062 30.9294 11.7507 26.8565C9.52865 22.844 7.5 18.2024 7.5 14.4531ZM20 5C14.4201 5 10 9.29427 10 14.4531C10 17.5007 11.7214 21.6431 13.9378 25.6454C16.1148 29.5766 18.6364 33.1433 20 34.9861C21.3635 33.1442 23.8852 29.5788 26.0623 25.648C28.2786 21.6464 30 17.5035 30 14.4531C30 9.29427 25.5799 5 20 5Z" fill="#21272A"/>
<path fill-rule="evenodd" clip-rule="evenodd" d="M20 12.5C18.6193 12.5 17.5 13.6193 17.5 15C17.5 16.3807 18.6193 17.5 20 17.5C21.3807 17.5 22.5 16.3807 22.5 15C22.5 13.6193 21.3807 12.5 20 12.5ZM15 15C15 12.2386 17.2386 10 20 10C22.7614 10 25 12.2386 25 15C25 17.7614 22.7614 20 20 20C17.2386 20 15 17.7614 15 15Z" fill="#21272A"/>
</svg>
