<svg width="41" height="41" viewBox="0 0 41 41" fill="none" xmlns="http://www.w3.org/2000/svg">
<path fill-rule="evenodd" clip-rule="evenodd" d="M19.2644 6.21524C19.7005 6.00009 20.1803 5.88818 20.6666 5.88818C21.1529 5.88818 21.6327 6.00009 22.0689 6.21524L35.7154 12.9506C35.7162 12.9511 35.7171 12.9515 35.7179 12.9519C36.4503 13.3103 37.0679 13.8662 37.5012 14.557C37.9349 15.2486 38.1665 16.0477 38.1697 16.8641L38.1698 16.8691V31.2917C38.1698 33.723 36.1777 35.6667 33.7541 35.6667H7.58225C5.15867 35.6667 3.16663 33.723 3.16663 31.2917V16.8691L3.16663 16.8647C3.16949 16.0488 3.40043 15.25 3.83336 14.5585C4.26595 13.8675 4.88298 13.3111 5.61485 12.9521C5.61545 12.9518 5.61604 12.9515 5.61663 12.9513L19.2644 6.21524ZM35.1666 14.0738L34.6134 15.1947L20.9628 8.45727C20.9628 8.45723 20.9627 8.4572 20.9626 8.45716C20.8705 8.41178 20.7693 8.38818 20.6666 8.38818C20.5639 8.38818 20.4626 8.4118 20.3705 8.45721C20.3705 8.45723 20.3705 8.45725 20.3704 8.45727L6.71986 15.1947L6.71662 15.1963C6.40262 15.3501 6.1379 15.5887 5.95236 15.8851C5.76715 16.1809 5.6682 16.5225 5.66663 16.8715V31.2917C5.66663 32.312 6.50896 33.1667 7.58225 33.1667H33.7541C34.8274 33.1667 35.6698 32.312 35.6698 31.2917V16.872C35.668 16.5228 35.5687 16.1811 35.3832 15.8853C35.1973 15.5889 34.9322 15.3505 34.6179 15.1969L35.1666 14.0738Z" fill="#21272A"/>
<path fill-rule="evenodd" clip-rule="evenodd" d="M18.5398 20.5753C19.0884 20.1486 19.7635 19.917 20.4584 19.917C21.1534 19.917 21.8285 20.1486 22.377 20.5753L32.4755 28.43C33.0204 28.8538 33.1186 29.6392 32.6947 30.1841C32.2709 30.729 31.4855 30.8272 30.9406 30.4033L20.8422 22.5487L21.6096 21.562L20.8421 22.5487C20.7324 22.4633 20.5974 22.417 20.4584 22.417C20.3194 22.417 20.1844 22.4633 20.0747 22.5487L20.0747 22.5487L9.97544 30.4034C9.4305 30.8272 8.64516 30.729 8.22133 30.1841C7.7975 29.6391 7.89568 28.8538 8.44062 28.43L18.5398 20.5753C18.5398 20.5753 18.5398 20.5753 18.5398 20.5753Z" fill="#21272A"/>
<path fill-rule="evenodd" clip-rule="evenodd" d="M36.4545 14.9119C36.8713 15.4622 36.763 16.2462 36.2127 16.663L25.5877 24.7099C25.0374 25.1267 24.2533 25.0185 23.8365 24.4681C23.4197 23.9178 23.528 23.1338 24.0783 22.717L34.7033 14.6701C35.2537 14.2533 36.0377 14.3616 36.4545 14.9119Z" fill="#21272A"/>
<path fill-rule="evenodd" clip-rule="evenodd" d="M4.46061 14.9131C4.87672 14.3623 5.6606 14.2531 6.21146 14.6692L17.0708 22.8723C17.6217 23.2884 17.7309 24.0723 17.3148 24.6231C16.8987 25.174 16.1148 25.2832 15.564 24.8671L4.70458 16.664C4.15372 16.2479 4.04449 15.464 4.46061 14.9131Z" fill="#21272A"/>
</svg>
