<svg width="23" height="22" viewBox="0 0 23 22" fill="none" xmlns="http://www.w3.org/2000/svg">
<path fill-rule="evenodd" clip-rule="evenodd" d="M4.44775 4.8125C3.87821 4.8125 3.4165 5.27421 3.4165 5.84375V16.1562C3.4165 16.7258 3.87821 17.1875 4.44775 17.1875H18.8853C19.4548 17.1875 19.9165 16.7258 19.9165 16.1562V5.84375C19.9165 5.27421 19.4548 4.8125 18.8853 4.8125H4.44775ZM2.0415 5.84375C2.0415 4.51481 3.11882 3.4375 4.44775 3.4375H18.8853C20.2142 3.4375 21.2915 4.51481 21.2915 5.84375V16.1562C21.2915 17.4852 20.2142 18.5625 18.8853 18.5625H4.44775C3.11882 18.5625 2.0415 17.4852 2.0415 16.1562V5.84375Z" fill="#2C2B2B"/>
<path fill-rule="evenodd" clip-rule="evenodd" d="M4.93636 6.45295C5.16947 6.15323 5.60141 6.09924 5.90112 6.33235L11.6665 10.8166L17.4319 6.33235C17.7317 6.09924 18.1636 6.15323 18.3967 6.45295C18.6298 6.75266 18.5758 7.1846 18.2761 7.41771L12.0886 12.2302C11.8404 12.4233 11.4927 12.4233 11.2445 12.2302L5.05695 7.41771C4.75724 7.1846 4.70325 6.75266 4.93636 6.45295Z" fill="#2C2B2B"/>
</svg>
