<svg width="32" height="32" viewBox="0 0 32 32" fill="none" xmlns="http://www.w3.org/2000/svg">
<path fill-rule="evenodd" clip-rule="evenodd" d="M3 16C3 8.82272 8.82272 3 16 3C23.1773 3 29 8.82272 29 16C29 23.1773 23.1773 29 16 29C8.82272 29 3 23.1773 3 16ZM16 5C9.92728 5 5 9.92728 5 16C5 22.0727 9.92728 27 16 27C22.0727 27 27 22.0727 27 16C27 9.92728 22.0727 5 16 5Z" fill="#B18431"/>
<path d="M16.0004 22.5C15.7997 22.4999 15.6037 22.4393 15.4379 22.3263C12.9816 20.6588 11.9179 19.5138 11.3316 18.8007C10.0816 17.2775 9.48287 15.7132 9.50037 14.0194C9.51975 12.0782 11.0766 10.4988 12.971 10.4988C14.246 10.4988 15.1585 11.1632 15.7272 11.7744C15.7623 11.8115 15.8045 11.841 15.8514 11.8612C15.8983 11.8814 15.9487 11.8918 15.9997 11.8918C16.0508 11.8918 16.1012 11.8814 16.1481 11.8612C16.195 11.841 16.2372 11.8115 16.2722 11.7744C16.8416 11.1632 17.7535 10.4988 19.0285 10.4988C20.9229 10.4988 22.4797 12.0782 22.4991 14.0194C22.5166 15.7132 21.9172 17.2775 20.6679 18.8007C20.0816 19.5157 19.0179 20.6588 16.5616 22.3263C16.3962 22.4391 16.2006 22.4996 16.0004 22.5Z" fill="#B18431"/>
</svg>
