<svg width="23" height="22" viewBox="0 0 23 22" fill="none" xmlns="http://www.w3.org/2000/svg">
<path fill-rule="evenodd" clip-rule="evenodd" d="M11.8777 2.06283C16.7162 2.17516 20.604 6.13463 20.604 11.0001C20.604 15.9405 16.6105 19.9469 11.6652 19.9376C6.71579 19.9283 2.67425 15.8609 2.72907 10.9068C2.75143 8.74025 3.56064 6.65569 5.00594 5.0415C5.25921 4.75862 5.69385 4.73463 5.97673 4.9879C6.25961 5.24118 6.2836 5.67582 6.03032 5.9587C4.80749 7.32443 4.12286 9.08815 4.10399 10.9212L4.10399 10.9218C4.05755 15.107 7.4779 18.5547 11.6678 18.5626C15.8491 18.5705 19.229 15.1836 19.229 11.0001C19.229 7.05479 16.2078 3.81355 12.354 3.46619V6.53135C12.354 6.91104 12.0462 7.21885 11.6665 7.21885C11.2868 7.21885 10.979 6.91104 10.979 6.53135V2.93855C10.9789 2.82151 11.0022 2.70563 11.0476 2.59777C11.0932 2.48953 11.1601 2.39157 11.2444 2.30974C11.3287 2.22791 11.4285 2.16389 11.5381 2.12149C11.6463 2.0796 11.7618 2.05966 11.8777 2.06283Z" fill="#6D6D6D"/>
<path d="M10.6947 11.9721L7.30019 7.11668C7.25323 7.04941 7.23145 6.96775 7.23866 6.88602C7.24587 6.8043 7.28161 6.72772 7.33962 6.6697C7.39764 6.61169 7.47422 6.57594 7.55594 6.56873C7.63767 6.56153 7.71933 6.58331 7.7866 6.63027L12.6421 10.0248C12.9399 10.2393 13.1413 10.5624 13.2027 10.9243C13.2641 11.2861 13.1807 11.6576 12.9703 11.9584C12.7599 12.2591 12.4396 12.465 12.0787 12.5314C11.7177 12.5978 11.3451 12.5195 11.0415 12.3133C10.9072 12.2203 10.7899 12.1049 10.6947 11.9721Z" fill="#6D6D6D"/>
</svg>
