<svg width="23" height="22" viewBox="0 0 23 22" fill="none" xmlns="http://www.w3.org/2000/svg">
<path fill-rule="evenodd" clip-rule="evenodd" d="M4.7915 4.125C4.03211 4.125 3.4165 4.74061 3.4165 5.5V17.875C3.4165 18.6344 4.03211 19.25 4.7915 19.25H18.5415C19.3009 19.25 19.9165 18.6344 19.9165 17.875V5.5C19.9165 4.74061 19.3009 4.125 18.5415 4.125H4.7915ZM2.0415 5.5C2.0415 3.98122 3.27272 2.75 4.7915 2.75H18.5415C20.0603 2.75 21.2915 3.98122 21.2915 5.5V17.875C21.2915 19.3938 20.0603 20.625 18.5415 20.625H4.7915C3.27272 20.625 2.0415 19.3938 2.0415 17.875V5.5Z" fill="#6D6D6D"/>
<path fill-rule="evenodd" clip-rule="evenodd" d="M6.1665 1.375C6.5462 1.375 6.854 1.6828 6.854 2.0625V3.4375C6.854 3.8172 6.5462 4.125 6.1665 4.125C5.78681 4.125 5.479 3.8172 5.479 3.4375V2.0625C5.479 1.6828 5.78681 1.375 6.1665 1.375Z" fill="#6D6D6D"/>
<path fill-rule="evenodd" clip-rule="evenodd" d="M17.1665 1.375C17.5462 1.375 17.854 1.6828 17.854 2.0625V3.4375C17.854 3.8172 17.5462 4.125 17.1665 4.125C16.7868 4.125 16.479 3.8172 16.479 3.4375V2.0625C16.479 1.6828 16.7868 1.375 17.1665 1.375Z" fill="#6D6D6D"/>
<path fill-rule="evenodd" clip-rule="evenodd" d="M6.1665 10.3125V13.0625H8.9165V10.3125H6.1665ZM4.7915 10.1836C4.7915 9.4954 5.3494 8.9375 6.0376 8.9375H9.04541C9.73361 8.9375 10.2915 9.4954 10.2915 10.1836V13.1914C10.2915 13.8796 9.73361 14.4375 9.04541 14.4375H6.0376C5.3494 14.4375 4.7915 13.8796 4.7915 13.1914V10.1836Z" fill="#6D6D6D"/>
<path fill-rule="evenodd" clip-rule="evenodd" d="M2.0415 6.875C2.0415 6.4953 2.34931 6.1875 2.729 6.1875H20.604C20.9837 6.1875 21.2915 6.4953 21.2915 6.875C21.2915 7.2547 20.9837 7.5625 20.604 7.5625H2.729C2.34931 7.5625 2.0415 7.2547 2.0415 6.875Z" fill="#6D6D6D"/>
</svg>
