<svg width="23" height="22" viewBox="0 0 23 22" fill="none" xmlns="http://www.w3.org/2000/svg">
<path d="M11.3337 18.3335C13.2786 18.3335 15.1438 17.5609 16.5191 16.1856C17.8944 14.8103 18.667 12.9451 18.667 11.0002C18.667 9.05524 17.8944 7.18998 16.5191 5.81471C15.1438 4.43945 13.2786 3.66683 11.3337 3.66683C9.38874 3.66683 7.52348 4.43945 6.14821 5.81471C4.77294 7.18998 4.00033 9.05524 4.00033 11.0002C4.00033 12.9451 4.77294 14.8103 6.14821 16.1856C7.52348 17.5609 9.38874 18.3335 11.3337 18.3335ZM11.3337 20.1668C6.27091 20.1668 2.16699 16.0629 2.16699 11.0002C2.16699 5.93741 6.27091 1.8335 11.3337 1.8335C16.3964 1.8335 20.5003 5.93741 20.5003 11.0002C20.5003 16.0629 16.3964 20.1668 11.3337 20.1668Z" fill="#2C2B2B"/>
<path d="M14.6737 10.4536C14.6847 9.08593 13.5563 7.83193 12.1583 7.65868L12.0667 7.64493C11.9966 7.63101 11.9254 7.62303 11.854 7.62109C11.5671 7.62109 11.491 7.82826 11.4708 7.95201C11.4594 8.0034 11.4584 8.05657 11.4678 8.10837C11.4773 8.16017 11.497 8.20955 11.5258 8.25359C11.6212 8.38651 11.788 8.40943 11.9218 8.42959C11.9613 8.43509 11.9988 8.43968 12.0291 8.44793C13.2858 8.73668 13.7093 9.19226 13.9156 10.4783C13.9211 10.5104 13.9229 10.5489 13.9248 10.5902C13.9339 10.7433 13.9532 11.0632 14.2868 11.0632C14.3143 11.0632 14.3437 11.0613 14.3748 11.0558C14.6856 11.0073 14.6755 10.7148 14.6709 10.5746C14.6686 10.5407 14.6686 10.5067 14.6709 10.4728C14.6719 10.4668 14.6725 10.4607 14.6728 10.4545L14.6737 10.4536Z" fill="#2C2B2B"/>
<path d="M11.7733 7.15648C11.81 7.15923 11.8467 7.16198 11.8751 7.16656C13.9376 7.49473 14.8873 8.50306 15.1503 10.6499C15.1549 10.6866 15.1549 10.7306 15.1558 10.7782C15.1586 10.946 15.1641 11.2943 15.5271 11.3016H15.5381C15.5879 11.3043 15.6378 11.2963 15.6842 11.2781C15.7307 11.2599 15.7728 11.232 15.8076 11.1962C15.9203 11.0743 15.913 10.8937 15.9066 10.7471C15.9048 10.7122 15.9029 10.6783 15.9038 10.649C15.9295 8.45356 14.0888 6.46256 11.964 6.38923L11.9383 6.39015C11.9302 6.39135 11.9219 6.39196 11.9136 6.39198C11.8925 6.39198 11.8659 6.39015 11.8384 6.38831C11.8019 6.38497 11.7652 6.38313 11.7284 6.38281C11.3902 6.38281 11.326 6.63031 11.3178 6.77881C11.2994 7.12073 11.6193 7.14548 11.7733 7.15648ZM15.0504 13.4237C15.0063 13.3891 14.9626 13.354 14.9193 13.3183C14.6938 13.1313 14.4537 12.959 14.2227 12.7921C14.1743 12.7574 14.1261 12.7226 14.0778 12.6876C13.7808 12.4731 13.5141 12.3677 13.262 12.3677C12.9228 12.3677 12.6268 12.5621 12.382 12.9443C12.2738 13.113 12.1418 13.1955 11.9805 13.1955C11.8679 13.1915 11.7575 13.163 11.6569 13.1121C10.699 12.6629 10.0143 11.9754 9.62285 11.0679C9.43402 10.6279 9.49452 10.3419 9.82818 10.1081C10.017 9.97615 10.369 9.72956 10.3443 9.25748C10.3168 8.72123 9.17002 7.1079 8.68693 6.92456C8.48086 6.84679 8.25362 6.84614 8.0471 6.92273C7.49252 7.11523 7.09377 7.4544 6.89485 7.90081C6.70235 8.33348 6.71152 8.8404 6.92052 9.3684C7.52277 10.8956 8.36885 12.2266 9.43768 13.3247C10.4827 14.4 11.7678 15.28 13.2565 15.9418C13.3903 16.0014 13.5315 16.0335 13.6342 16.0573L13.7213 16.0793C13.7332 16.0827 13.7455 16.0846 13.7579 16.0848H13.7698C14.4702 16.0848 15.3108 15.4248 15.5693 14.6713C15.7957 14.0113 15.3823 13.6859 15.0504 13.4246V13.4237ZM12.0832 8.9009C11.964 8.90365 11.7138 8.91006 11.6258 9.17223C11.5854 9.29506 11.59 9.4014 11.6404 9.48848C11.7147 9.61681 11.8577 9.65623 11.9869 9.67731C12.4563 9.75523 12.6983 10.0238 12.7459 10.5206C12.7688 10.7535 12.9201 10.9148 13.1144 10.9148C13.1291 10.9151 13.1438 10.9145 13.1584 10.913C13.3922 10.8836 13.5049 10.7067 13.4948 10.3859C13.4985 10.0504 13.3289 9.6709 13.0402 9.3684C12.7505 9.06406 12.4013 8.89265 12.0832 8.9009Z" fill="#2C2B2B"/>
</svg>
